REM DIRINDEX 1\3,1\2\4,1\2\5,1\2\6
REM DIRNAME cjc137,folder01,folder02,folder03,folder04,folder05
TITLE ""
FILE "089.mp3" MP3
  TRACK 01 AUDIO
    TITLE "0:"
    INDEX 01 00:00:00
  TRACK 02 AUDIO
    TITLE "4:cjc137_3657"
    INDEX 01 00:00:03
  TRACK 03 AUDIO
    TITLE "0:"
    INDEX 01 00:01:17
  TRACK 04 AUDIO
    TITLE "6:cjc137_3658"
    INDEX 01 00:01:24
  TRACK 05 AUDIO
    TITLE "0:"
    INDEX 01 00:02:34
  TRACK 06 AUDIO
    TITLE "5:cjc137_3659"
    INDEX 01 00:02:43
  TRACK 07 AUDIO
    TITLE "0:"
    INDEX 01 00:03:59
  TRACK 08 AUDIO
    TITLE "4:cjc137_3660"
    INDEX 01 00:04:68
  TRACK 09 AUDIO
    TITLE "0:"
    INDEX 01 00:05:71
  TRACK 10 AUDIO
    TITLE "6:cjc137_3661"
    INDEX 01 00:06:04
  TRACK 11 AUDIO
    TITLE "0:"
    INDEX 01 00:07:23
  TRACK 12 AUDIO
    TITLE "5:cjc137_3662"
    INDEX 01 00:07:31
  TRACK 13 AUDIO
    TITLE "0:"
    INDEX 01 00:08:34
  TRACK 14 AUDIO
    TITLE "4:cjc137_3663"
    INDEX 01 00:09:44
  TRACK 15 AUDIO
    TITLE "0:"
    INDEX 01 00:10:53
  TRACK 16 AUDIO
    TITLE "6:cjc137_3664"
    INDEX 01 00:10:63
  TRACK 17 AUDIO
    TITLE "0:"
    INDEX 01 00:12:01
  TRACK 18 AUDIO
    TITLE "5:cjc137_3665"
    INDEX 01 00:12:09
  TRACK 19 AUDIO
    TITLE "0:"
    INDEX 01 00:13:20
  TRACK 20 AUDIO
    TITLE "4:cjc137_3666"
    INDEX 01 00:14:27
  TRACK 21 AUDIO
    TITLE "0:"
    INDEX 01 00:15:62
  TRACK 22 AUDIO
    TITLE "6:cjc137_3667"
    INDEX 01 00:15:70
  TRACK 23 AUDIO
    TITLE "0:"
    INDEX 01 00:17:10
  TRACK 24 AUDIO
    TITLE "5:cjc137_3668"
    INDEX 01 00:17:18
  TRACK 25 AUDIO
    TITLE "0:"
    INDEX 01 00:18:50
  TRACK 26 AUDIO
    TITLE "4:cjc137_3669"
    INDEX 01 00:19:63
  TRACK 27 AUDIO
    TITLE "0:"
    INDEX 01 00:21:02
  TRACK 28 AUDIO
    TITLE "6:cjc137_3670"
    INDEX 01 00:21:09
  TRACK 29 AUDIO
    TITLE "0:"
    INDEX 01 00:22:32
  TRACK 30 AUDIO
    TITLE "5:cjc137_3671"
    INDEX 01 00:22:40
  TRACK 31 AUDIO
    TITLE "0:"
    INDEX 01 00:23:53
  TRACK 32 AUDIO
    TITLE "4:cjc137_3672"
    INDEX 01 00:24:63
  TRACK 33 AUDIO
    TITLE "0:"
    INDEX 01 00:25:70
  TRACK 34 AUDIO
    TITLE "6:cjc137_3673"
    INDEX 01 00:26:03
  TRACK 35 AUDIO
    TITLE "0:"
    INDEX 01 00:26:66
  TRACK 36 AUDIO
    TITLE "5:cjc137_3674"
    INDEX 01 00:26:73
  TRACK 37 AUDIO
    TITLE "0:"
    INDEX 01 00:28:08
  TRACK 38 AUDIO
    TITLE "4:cjc137_3675"
    INDEX 01 00:29:15
  TRACK 39 AUDIO
    TITLE "0:"
    INDEX 01 00:30:22
  TRACK 40 AUDIO
    TITLE "6:cjc137_3676"
    INDEX 01 00:30:30
  TRACK 41 AUDIO
    TITLE "0:"
    INDEX 01 00:31:43
  TRACK 42 AUDIO
    TITLE "5:cjc137_3677"
    INDEX 01 00:31:49
  TRACK 43 AUDIO
    TITLE "0:"
    INDEX 01 00:32:58
  TRACK 44 AUDIO
    TITLE "4:cjc137_3678"
    INDEX 01 00:33:68
  TRACK 45 AUDIO
    TITLE "0:"
    INDEX 01 00:34:73
  TRACK 46 AUDIO
    TITLE "6:cjc137_3679"
    INDEX 01 00:35:10
  TRACK 47 AUDIO
    TITLE "0:"
    INDEX 01 00:36:40
  TRACK 48 AUDIO
    TITLE "5:cjc137_3680"
    INDEX 01 00:36:46
  TRACK 49 AUDIO
    TITLE "0:"
    INDEX 01 00:37:52
  TRACK 50 AUDIO
    TITLE "4:cjc137_3681"
    INDEX 01 00:38:63
  TRACK 51 AUDIO
    TITLE "0:"
    INDEX 01 00:40:36
  TRACK 52 AUDIO
    TITLE "6:cjc137_3682"
    INDEX 01 00:40:42
  TRACK 53 AUDIO
    TITLE "0:"
    INDEX 01 00:41:57
  TRACK 54 AUDIO
    TITLE "5:cjc137_3683"
    INDEX 01 00:41:61
  TRACK 55 AUDIO
    TITLE "0:"
    INDEX 01 00:43:31
  TRACK 56 AUDIO
    TITLE "4:cjc137_3684"
    INDEX 01 00:44:42
  TRACK 57 AUDIO
    TITLE "0:"
    INDEX 01 00:45:49
  TRACK 58 AUDIO
    TITLE "6:cjc137_3685"
    INDEX 01 00:45:59
  TRACK 59 AUDIO
    TITLE "0:"
    INDEX 01 00:46:74
  TRACK 60 AUDIO
    TITLE "5:cjc137_3686"
    INDEX 01 00:47:05
  TRACK 61 AUDIO
    TITLE "0:"
    INDEX 01 00:48:14
  TRACK 62 AUDIO
    TITLE "4:cjc137_3687"
    INDEX 01 00:49:23
  TRACK 63 AUDIO
    TITLE "0:"
    INDEX 01 00:50:35
  TRACK 64 AUDIO
    TITLE "6:cjc137_3688"
    INDEX 01 00:50:44
  TRACK 65 AUDIO
    TITLE "0:"
    INDEX 01 00:51:52
  TRACK 66 AUDIO
    TITLE "5:cjc137_3689"
    INDEX 01 00:51:60
  TRACK 67 AUDIO
    TITLE "0:"
    INDEX 01 00:52:71
  TRACK 68 AUDIO
    TITLE "4:cjc137_3690"
    INDEX 01 00:54:07
  TRACK 69 AUDIO
    TITLE "0:"
    INDEX 01 00:55:12
  TRACK 70 AUDIO
    TITLE "6:cjc137_3691"
    INDEX 01 00:55:18
  TRACK 71 AUDIO
    TITLE "0:"
    INDEX 01 00:56:02
  TRACK 72 AUDIO
    TITLE "5:cjc137_3692"
    INDEX 01 00:56:10
  TRACK 73 AUDIO
    TITLE "0:"
    INDEX 01 00:57:13
  TRACK 74 AUDIO
    TITLE "4:cjc137_3693"
    INDEX 01 00:58:22
  TRACK 75 AUDIO
    TITLE "0:"
    INDEX 01 00:59:59
  TRACK 76 AUDIO
    TITLE "6:cjc137_3694"
    INDEX 01 00:59:65
  TRACK 77 AUDIO
    TITLE "0:"
    INDEX 01 01:01:17
  TRACK 78 AUDIO
    TITLE "5:cjc137_3695"
    INDEX 01 01:01:27
  TRACK 79 AUDIO
    TITLE "0:"
    INDEX 01 01:02:63
  TRACK 80 AUDIO
    TITLE "4:cjc137_3696"
    INDEX 01 01:03:71
  TRACK 81 AUDIO
    TITLE "0:"
    INDEX 01 01:05:07
  TRACK 82 AUDIO
    TITLE "6:cjc137_3697"
    INDEX 01 01:05:15
  TRACK 83 AUDIO
    TITLE "0:"
    INDEX 01 01:05:73
  TRACK 84 AUDIO
    TITLE "5:cjc137_3698"
    INDEX 01 01:06:08
  TRACK 85 AUDIO
    TITLE "0:"
    INDEX 01 01:07:21
